<svg xmlns="http://www.w3.org/2000/svg" data-name="Layer 1" viewBox="0 0 64 64" id="message"><path d="M55.43 55.68H8.57a5.51 5.51 0 0 1-5.5-5.5V13.82a5.51 5.51 0 0 1 5.5-5.5h46.86a5.51 5.51 0 0 1 5.5 5.5v36.36a5.51 5.51 0 0 1-5.5 5.5ZM8.57 11.32a2.5 2.5 0 0 0-2.5 2.5v36.36a2.5 2.5 0 0 0 2.5 2.5h46.86a2.5 2.5 0 0 0 2.5-2.5V13.82a2.5 2.5 0 0 0-2.5-2.5Z"></path><path d="M32 27.21a2 2 0 0 1-.42-.05l-17.25-5a1.5 1.5 0 0 1 .84-2.89L32 24.15l16.83-4.88a1.5 1.5 0 0 1 .84 2.89l-17.25 5a2 2 0 0 1-.42.05Z"></path></svg>